<?xml version="1.0" encoding="UTF-8" standalone="no"?>
<!-- Created with Inkscape (http://www.inkscape.org/) -->

<svg
   xmlns:dc="http://purl.org/dc/elements/1.1/"
   xmlns:cc="http://creativecommons.org/ns#"
   xmlns:rdf="http://www.w3.org/1999/02/22-rdf-syntax-ns#"
   xmlns:svg="http://www.w3.org/2000/svg"
   xmlns="http://www.w3.org/2000/svg"
   xmlns:sodipodi="http://sodipodi.sourceforge.net/DTD/sodipodi-0.dtd"
   xmlns:inkscape="http://www.inkscape.org/namespaces/inkscape"
   width="792pt"
   height="612pt"
   id="svg2985"
   version="1.1"
   inkscape:version="0.48.1 "
   sodipodi:docname="New document 2">
  <defs
     id="defs2987" />
  <sodipodi:namedview
     inkscape:document-units="in"
     pagecolor="#ffffff"
     bordercolor="#666666"
     borderopacity="1.0"
     inkscape:pageopacity="0.0"
     inkscape:pageshadow="2"
     inkscape:zoom="1"
     inkscape:cx="221.80446"
     inkscape:cy="476"
     inkscape:current-layer="text2994"
     id="namedview2989"
     showgrid="false"
     showguides="true"
     inkscape:snap-global="false"
     inkscape:window-width="1858"
     inkscape:window-height="1058"
     inkscape:window-x="54"
     inkscape:window-y="-8"
     inkscape:window-maximized="1">
    <inkscape:grid
       type="xygrid"
       id="grid3057" />
  </sodipodi:namedview>
  <metadata
     id="metadata2991">
    <rdf:RDF>
      <cc:Work
         rdf:about="">
        <dc:format>image/svg+xml</dc:format>
        <dc:type
           rdf:resource="http://purl.org/dc/dcmitype/StillImage" />
        <dc:title></dc:title>
      </cc:Work>
    </rdf:RDF>
  </metadata>
  <g
     inkscape:label="Layer 1"
     inkscape:groupmode="layer"
     id="layer1">
    <g
       style="font-size:40px;font-style:normal;font-variant:normal;font-weight:normal;font-stretch:normal;text-align:center;line-height:125%;letter-spacing:0px;word-spacing:0px;text-anchor:middle;fill:#000000;fill-opacity:1;stroke:none;font-family:Impact;-inkscape-font-specification:Impact"
       id="text2994">
      <path
         d="m 299.91294,195.76967 -69.63925,0 0,-16.45161 40.39195,-54.60284 -38.26915,0 0,-16.74642 65.15779,0 0,16.74642 -40.33298,54.30799 42.69164,0 z"
         style="font-weight:bold;fill:#4d4d4d;fill-opacity:1;stroke:#1e1e1e;stroke-width:3.01907659;stroke-opacity:1;font-family:Tahoma;-inkscape-font-specification:Tahoma Bold"
         id="path3001"
         inkscape:connector-curvature="0"
         inkscape:export-filename="D:\Documents\UMUC\cmis440\fprj\web\resources\images\logo-lg.png"
         inkscape:export-xdpi="90"
         inkscape:export-ydpi="90" />
      <path
         d="m 391.36972,151.89871 c -7e-5,14.19125 -3.79358,25.35552 -11.38054,33.49288 -7.58705,8.13735 -17.98477,12.20604 -31.19318,12.20604 -13.24778,0 -23.64551,-4.11783 -31.19319,-12.35348 -7.54767,-8.2356 -11.32152,-19.35071 -11.32152,-33.34544 0,-14.11256 3.77385,-25.26702 11.32152,-33.4634 7.54768,-8.19625 17.94541,-12.29439 31.19319,-12.29446 13.20841,7e-5 23.60613,4.07858 31.19318,12.23549 7.58696,8.1571 11.38047,19.3312 11.38054,33.52237 z m -22.76103,-0.0589 c -6e-5,-5.22831 -0.54056,-9.68026 -1.62157,-13.35589 -1.08111,-3.67551 -2.52575,-6.69262 -4.33401,-9.05133 -1.88697,-2.39788 -4.01959,-4.11777 -6.39783,-5.15955 -2.37838,-1.04168 -4.84514,-1.56252 -7.40031,-1.56262 -2.71249,1e-4 -5.16941,0.48165 -7.37078,1.4447 -2.20143,0.96318 -4.32422,2.68302 -6.36838,5.15953 -1.8083,2.28009 -3.27264,5.30703 -4.39296,9.08082 -1.12041,3.7739 -1.68056,8.275 -1.68056,13.50329 0,5.38564 0.53068,9.85726 1.5921,13.41484 1.06135,3.55766 2.51586,6.53546 4.36349,8.9334 1.8869,2.4373 4.02934,4.1768 6.42735,5.21854 2.39791,1.04174 4.87452,1.5626 7.42974,1.5626 2.59448,0 5.11038,-0.56015 7.5477,-1.68053 2.43724,-1.12036 4.54036,-2.85986 6.30942,-5.21854 1.88685,-2.55516 3.34135,-5.53297 4.36349,-8.93339 1.02202,-3.40034 1.53305,-7.8523 1.53311,-13.35587 z"
         style="font-weight:bold;fill:#4d4d4d;fill-opacity:1;stroke:#1e1e1e;stroke-width:3.01907659;stroke-opacity:1;font-family:Tahoma;-inkscape-font-specification:Tahoma Bold"
         id="path3003"
         inkscape:connector-curvature="0"
         inkscape:export-filename="D:\Documents\UMUC\cmis440\fprj\web\resources\images\logo-lg.png"
         inkscape:export-xdpi="90"
         inkscape:export-ydpi="90" />
      <path
         d="m 494.0301,195.76967 -21.93546,0 0,-58.19977 -15.97988,37.56153 -15.03642,0 -15.97988,-37.56153 0,58.19977 -20.75614,0 0,-87.80087 25.41447,0 19.4589,43.34025 19.39992,-43.34025 25.41449,0 z"
         style="font-weight:bold;fill:#4d4d4d;fill-opacity:1;stroke:#1e1e1e;stroke-width:3.01907659;stroke-opacity:1;font-family:Tahoma;-inkscape-font-specification:Tahoma Bold"
         id="path3005"
         inkscape:connector-curvature="0"
         inkscape:export-filename="D:\Documents\UMUC\cmis440\fprj\web\resources\images\logo-lg.png"
         inkscape:export-xdpi="90"
         inkscape:export-ydpi="90" />
      <path
         d="m 585.48688,190.75751 c -3.85253,1.57245 -8.85485,3.10557 -15.00691,4.59938 -6.15221,1.49381 -12.2159,2.24074 -18.19112,2.24074 -13.79817,0 -24.79537,-3.98023 -32.99168,-11.9407 -8.19631,-7.96043 -12.29445,-19.25246 -12.29445,-33.87615 0,-13.75878 4.09814,-24.78548 12.29445,-33.0801 8.19631,-8.29453 19.40973,-12.44183 33.6403,-12.44192 7.35111,9e-5 13.32633,0.69785 17.92578,2.09332 4.59929,1.39562 9.35591,3.29235 14.26984,5.69024 l 0,20.57923 -2.00484,0 c -1.06147,-0.82544 -2.58475,-1.99495 -4.56989,-3.50849 -1.9853,-1.51339 -3.92133,-2.80082 -5.8082,-3.86228 -2.20147,-1.25789 -4.74686,-2.33893 -7.63614,-3.24313 -2.88941,-0.9041 -5.94582,-1.35617 -9.16928,-1.35623 -3.77386,6e-5 -7.21357,0.58973 -10.31908,1.76898 -3.10559,1.1794 -5.87703,2.98768 -8.31426,5.42489 -2.31939,2.35873 -4.15714,5.34637 -5.51336,8.96289 -1.35624,3.61667 -2.03435,7.82291 -2.03434,12.6188 -10e-6,10.26018 2.57483,17.82753 7.72459,22.70205 5.14972,4.87454 12.18636,7.31182 21.10997,7.31182 0.78616,0 1.70996,-0.0211 2.77141,-0.0589 1.06132,-0.0393 1.98514,-0.0982 2.77143,-0.17701 l 0,-17.21814 -17.04128,0 0,-16.45162 38.38706,0 z"
         style="font-weight:bold;fill:#4d4d4d;fill-opacity:1;stroke:#1e1e1e;stroke-width:3.01907659;stroke-opacity:1;font-family:Tahoma;-inkscape-font-specification:Tahoma Bold"
         id="path3007"
         inkscape:connector-curvature="0"
         inkscape:export-filename="D:\Documents\UMUC\cmis440\fprj\web\resources\images\logo-lg.png"
         inkscape:export-xdpi="90"
         inkscape:export-ydpi="90" />
      <path
         d="m 243.60008,293.97219 c -6.7222,0 -12.62866,-0.64861 -17.7194,-1.94588 -5.09076,-1.29724 -9.81787,-2.90901 -14.18139,-4.83524 l 0,-20.87408 2.00485,0 c 4.40283,3.73455 9.25769,6.60424 14.56471,8.60908 5.30692,2.00489 10.45665,3.00731 15.44917,3.00727 1.25791,4e-5 2.91879,-0.13767 4.98265,-0.41276 2.06378,-0.27505 3.72468,-0.70756 4.98264,-1.29724 1.53309,-0.66827 2.83035,-1.60192 3.89178,-2.80093 1.06135,-1.19895 1.59206,-2.78119 1.59208,-4.74676 -2e-5,-2.20139 -0.86487,-3.99005 -2.59448,-5.36597 -1.72973,-1.37583 -3.79358,-2.37827 -6.19147,-3.00727 -2.98769,-0.78618 -6.18169,-1.53307 -9.58204,-2.2407 -3.40041,-0.70756 -6.57475,-1.57243 -9.52307,-2.59451 -6.80081,-2.39794 -11.67534,-5.62144 -14.62365,-9.67049 -2.94832,-4.04899 -4.42246,-9.12008 -4.42246,-15.21333 0,-8.2159 3.47898,-14.86923 10.43701,-19.9601 6.95802,-5.09068 15.64572,-7.63607 26.06315,-7.63614 5.22831,7e-5 10.42714,0.5308 15.59659,1.59209 5.16932,1.06148 9.79817,2.49634 13.88659,4.30454 l 0,20.04855 -1.9459,0 c -3.26288,-2.79099 -7.24309,-5.14964 -11.94069,-7.07597 -4.69771,-1.92613 -9.5231,-2.88925 -14.47623,-2.88934 -1.92629,9e-5 -3.65596,0.13768 -5.18903,0.41277 -1.53318,0.27535 -3.14491,0.80594 -4.83526,1.59212 -1.37593,0.629 -2.56507,1.56266 -3.56746,2.80088 -1.00245,1.23836 -1.50366,2.62404 -1.50362,4.1571 -4e-5,2.24079 0.796,4.01961 2.38812,5.33647 1.59208,1.31698 4.66813,2.50613 9.22822,3.56746 2.94827,0.66834 5.78851,1.31698 8.52065,1.94588 2.73205,0.62902 5.6509,1.49389 8.7565,2.59456 6.09313,2.20142 10.6237,5.15959 13.59172,8.87439 2.96792,3.71494 4.4519,8.61898 4.45196,14.71212 -6e-5,8.72704 -3.42993,15.74405 -10.28961,21.05097 -6.85983,5.30698 -16.12734,7.96046 -27.80263,7.96046 z"
         style="font-weight:bold;fill:#4d4d4d;fill-opacity:1;stroke:#1e1e1e;stroke-width:3.01907659;stroke-opacity:1;font-family:Tahoma;-inkscape-font-specification:Tahoma Bold"
         id="path3009"
         inkscape:connector-curvature="0"
         inkscape:export-filename="D:\Documents\UMUC\cmis440\fprj\web\resources\images\logo-lg.png"
         inkscape:export-xdpi="90"
         inkscape:export-ydpi="90" />
      <path
         d="m 309.76032,292.3801 0,-71.05444 -25.94518,0 0,-16.74643 73.94376,0 0,16.74643 -25.9452,0 0,71.05444 z"
         style="font-weight:bold;fill:#4d4d4d;fill-opacity:1;stroke:#1e1e1e;stroke-width:3.01907659;stroke-opacity:1;font-family:Tahoma;-inkscape-font-specification:Tahoma Bold"
         id="path3011"
         inkscape:connector-curvature="0"
         inkscape:export-filename="D:\Documents\UMUC\cmis440\fprj\web\resources\images\logo-lg.png"
         inkscape:export-xdpi="90"
         inkscape:export-ydpi="90" />
      <path
         d="m 446.916,248.50917 c -9e-5,14.19124 -3.79356,25.35552 -11.38049,33.49286 -7.58708,8.13734 -17.98481,12.20605 -31.19319,12.20605 -13.24781,0 -23.64553,-4.11782 -31.19319,-12.35347 -7.5477,-8.23562 -11.32155,-19.35074 -11.32155,-33.34544 0,-14.11256 3.77385,-25.26702 11.32155,-33.4634 7.54766,-8.19625 17.94538,-12.2944 31.19319,-12.2945 13.20838,1e-4 23.60611,4.07858 31.19319,12.2355 7.58693,8.1571 11.3804,19.33123 11.38049,33.5224 z m -22.76101,-0.0589 c -7e-5,-5.22831 -0.54058,-9.68025 -1.62157,-13.35588 -1.08109,-3.67553 -2.52579,-6.69264 -4.33403,-9.05135 -1.88695,-2.39787 -4.01957,-4.11773 -6.39786,-5.15955 -2.37833,-1.04166 -4.84509,-1.56251 -7.40025,-1.56258 -2.7125,7e-5 -5.16942,0.48162 -7.3708,1.44467 -2.20143,0.96318 -4.32424,2.68303 -6.36837,5.15953 -1.80833,2.28012 -3.27264,5.30703 -4.39298,9.08082 -1.12038,3.77391 -1.68059,8.27503 -1.68055,13.50329 -4e-5,5.38564 0.53067,9.85726 1.59211,13.41487 1.06136,3.55764 2.51585,6.53544 4.36352,8.93337 1.88686,2.4373 4.0293,4.17681 6.4273,5.21853 2.39792,1.04178 4.87452,1.56262 7.42977,1.56262 2.59446,0 5.11035,-0.56016 7.54768,-1.68055 2.43725,-1.12035 4.54036,-2.85984 6.30942,-5.21852 1.88686,-2.55517 3.34135,-5.53298 4.36349,-8.93338 1.02203,-3.40036 1.53305,-7.85232 1.53312,-13.35589 z"
         style="font-weight:bold;fill:#4d4d4d;fill-opacity:1;stroke:#1e1e1e;stroke-width:3.01907659;stroke-opacity:1;font-family:Tahoma;-inkscape-font-specification:Tahoma Bold"
         id="path3013"
         inkscape:connector-curvature="0"
         inkscape:export-filename="D:\Documents\UMUC\cmis440\fprj\web\resources\images\logo-lg.png"
         inkscape:export-xdpi="90"
         inkscape:export-ydpi="90" />
      <path
         d="m 541.08525,292.3801 -26.88866,0 -24.47102,-32.19561 -7.9015,0 0,32.19561 -21.93546,0 0,-87.80087 35.32083,0 c 4.87448,1e-4 9.12005,0.30476 12.73672,0.91397 3.61653,0.6094 6.95796,1.8772 10.02428,3.80335 3.14479,2.00494 5.64106,4.55032 7.48873,7.63615 1.84753,3.08598 2.77134,7.00721 2.77141,11.76377 -7e-5,6.72221 -1.51355,12.17658 -4.5404,16.36315 -3.02702,4.18663 -7.07603,7.51825 -12.14707,9.99481 z m -35.49772,-60.91222 c -6e-5,-2.20135 -0.42266,-4.09808 -1.26778,-5.69026 -0.84526,-1.59203 -2.2506,-2.82047 -4.21612,-3.68539 -1.37591,-0.58959 -2.90906,-0.96305 -4.59937,-1.12033 -1.69043,-0.15735 -3.79354,-0.23579 -6.3094,-0.23579 l -7.37079,0 0,23.64549 6.30941,0 c 3.06621,6e-5 5.67055,-0.18665 7.81304,-0.56017 2.14239,-0.37343 3.96051,-1.16947 5.45438,-2.38815 1.41514,-1.10067 2.4667,-2.41756 3.15469,-3.95074 0.68791,-1.53307 1.03188,-3.53792 1.03194,-6.01455 z"
         style="font-weight:bold;fill:#4d4d4d;fill-opacity:1;stroke:#1e1e1e;stroke-width:3.01907659;stroke-opacity:1;font-family:Tahoma;-inkscape-font-specification:Tahoma Bold"
         id="path3015"
         inkscape:connector-curvature="0"
         inkscape:export-filename="D:\Documents\UMUC\cmis440\fprj\web\resources\images\logo-lg.png"
         inkscape:export-xdpi="90"
         inkscape:export-ydpi="90" />
      <path
         d="m 547.63053,292.3801 0,-87.80087 59.3791,0 0,16.74643 -37.44365,0 0,15.39023 34.4953,0 0,16.74642 -34.4953,0 0,22.17136 37.44365,0 0,16.74643 z"
         style="font-weight:bold;fill:#4d4d4d;fill-opacity:1;stroke:#1e1e1e;stroke-width:3.01907659;stroke-opacity:1;font-family:Tahoma;-inkscape-font-specification:Tahoma Bold"
         id="path3017"
         inkscape:connector-curvature="0"
         inkscape:export-filename="D:\Documents\UMUC\cmis440\fprj\web\resources\images\logo-lg.png"
         inkscape:export-xdpi="90"
         inkscape:export-ydpi="90" />
      <text
         xml:space="preserve"
         style="font-size:120.76306152px;font-style:normal;font-variant:normal;font-weight:normal;font-stretch:normal;line-height:125%;letter-spacing:0px;word-spacing:0px;fill:#ff6600;fill-opacity:1;stroke:none;font-family:Impact;-inkscape-font-specification:Impact"
         x="339.21234"
         y="343.52518"
         id="text3019"
         sodipodi:linespacing="125%"
         transform="matrix(0.96646422,-0.25680132,0.25680132,0.96646422,0,0)"
         inkscape:export-filename="D:\Documents\UMUC\cmis440\fprj\web\resources\images\logo-lg.png"
         inkscape:export-xdpi="90"
         inkscape:export-ydpi="90"><tspan
           sodipodi:role="line"
           id="tspan3021"
           x="339.21234"
           y="343.52518"
           style="font-style:normal;font-variant:normal;font-weight:normal;font-stretch:normal;fill:#ff6600;font-family:MV Boli;-inkscape-font-specification:MV Boli">GAMES!</tspan></text>
    </g>
  </g>
</svg>
